<svg width="26" height="26" viewBox="0 0 26 26" fill="none" xmlns="http://www.w3.org/2000/svg">
<path d="M12.6229 17.338C14.9468 17.338 16.8308 15.3976 16.8308 13.004C16.8308 10.6104 14.9468 8.66998 12.6229 8.66998C10.299 8.66998 8.41507 10.6104 8.41507 13.004C8.41507 15.3976 10.299 17.338 12.6229 17.338Z" fill="#EE0081"/>
<path d="M12.6226 0C5.66213 0 0 5.83189 0 13.0011C0 14.5203 0.255158 15.9783 0.722196 17.3351H3.75344C3.14574 16.0211 2.80493 14.551 2.80493 13.0011C2.80493 7.42548 7.20934 2.88903 12.6226 2.88903H25.8286V0H12.6226Z" fill="#F5BBDC"/>
<path d="M12.6228 4.33167C7.98307 4.33167 4.20799 8.21992 4.20799 12.9988C4.20799 14.5765 4.62003 16.0568 5.33774 17.3327H8.91444C7.74866 16.2741 7.01293 14.7251 7.01293 12.9988C7.01293 9.80789 9.52482 7.22069 12.6228 7.22069H25.8288V4.33167H12.6228Z" fill="#F5BBDC"/>
<path d="M24.5231 8.66492H21.4918C22.0995 9.97895 22.4404 11.449 22.4404 12.999C22.4404 18.5745 18.036 23.111 12.6227 23.111H0V26H12.6227C19.5832 26 25.2453 20.1681 25.2453 12.999C25.2453 11.4797 24.9901 10.0217 24.5231 8.66492Z" fill="#F5BBDC"/>
<path d="M12.6226 21.666C17.2624 21.666 21.0375 17.7778 21.0375 12.999C21.0375 11.4212 20.6254 9.94089 19.9077 8.66492H16.331C17.4968 9.72358 18.2325 11.2726 18.2325 12.999C18.2325 16.1898 15.7206 18.777 12.6226 18.777H0V21.666H12.6226Z" fill="#F5BBDC"/>
</svg>
