<svg width="13" height="13" viewBox="0 0 13 13" fill="none" xmlns="http://www.w3.org/2000/svg">
<path d="M5.19531 1.58203C4.92188 1.85547 4.94922 2.26562 5.19531 2.53906L8.50391 5.65625H0.65625C0.273438 5.65625 0 5.95703 0 6.3125V7.1875C0 7.57031 0.273438 7.84375 0.65625 7.84375H8.50391L5.19531 10.9883C4.94922 11.2617 4.94922 11.6719 5.19531 11.9453L5.79688 12.5469C6.07031 12.793 6.48047 12.793 6.72656 12.5469L12.0586 7.21484C12.3047 6.96875 12.3047 6.55859 12.0586 6.28516L6.72656 0.980469C6.48047 0.734375 6.07031 0.734375 5.79688 0.980469L5.19531 1.58203Z" fill="white"/>
</svg>
